<mxfile host="app.diagrams.net" modified="2021-01-12T02:52:26.177Z" agent="5.0 (Windows NT 10.0; Win64; x64) AppleWebKit/537.36 (KHTML, like Gecko) Chrome/87.0.4280.141 Safari/537.36" etag="st2zqVX_yvX4s3xf9WJ1" version="14.1.9" type="github">
  <diagram id="S-UyIpDcoepZGdr2UUC-" name="第 1 页">
    <mxGraphModel dx="1422" dy="706" grid="1" gridSize="10" guides="1" tooltips="1" connect="1" arrows="1" fold="1" page="1" pageScale="1" pageWidth="827" pageHeight="1169" math="0" shadow="0">
      <root>
        <mxCell id="0" />
        <mxCell id="1" parent="0" />
        <mxCell id="V17ofXIWmrN5ctmRVOS8-1" value="AbsTemplateThirdPay" style="swimlane;fontStyle=1;align=center;verticalAlign=top;childLayout=stackLayout;horizontal=1;startSize=26;horizontalStack=0;resizeParent=1;resizeParentMax=0;resizeLast=0;collapsible=1;marginBottom=0;" vertex="1" parent="1">
          <mxGeometry x="200" y="60" width="400" height="130" as="geometry" />
        </mxCell>
        <mxCell id="V17ofXIWmrN5ctmRVOS8-3" value="" style="line;strokeWidth=1;fillColor=none;align=left;verticalAlign=middle;spacingTop=-1;spacingLeft=3;spacingRight=3;rotatable=0;labelPosition=right;points=[];portConstraint=eastwest;" vertex="1" parent="V17ofXIWmrN5ctmRVOS8-1">
          <mxGeometry y="26" width="400" height="8" as="geometry" />
        </mxCell>
        <mxCell id="V17ofXIWmrN5ctmRVOS8-4" value="paramValid  参数校验&#xa;uppMoney   变更用户钱包 独立事务加锁&#xa;saveTrade  保存对应交易记录(钱包转账、油券转账)&#xa;callThird  调用三方API 独立事务&#xa;handleConsum  处理对应的业务处理逻辑&#xa;template  组装模板方法逻辑" style="text;strokeColor=none;fillColor=none;align=left;verticalAlign=top;spacingLeft=4;spacingRight=4;overflow=hidden;rotatable=0;points=[[0,0.5],[1,0.5]];portConstraint=eastwest;" vertex="1" parent="V17ofXIWmrN5ctmRVOS8-1">
          <mxGeometry y="34" width="400" height="96" as="geometry" />
        </mxCell>
        <mxCell id="V17ofXIWmrN5ctmRVOS8-15" style="edgeStyle=orthogonalEdgeStyle;rounded=0;orthogonalLoop=1;jettySize=auto;html=1;exitX=0.5;exitY=0;exitDx=0;exitDy=0;entryX=0.35;entryY=1;entryDx=0;entryDy=0;entryPerimeter=0;" edge="1" parent="1" source="V17ofXIWmrN5ctmRVOS8-7" target="V17ofXIWmrN5ctmRVOS8-4">
          <mxGeometry relative="1" as="geometry" />
        </mxCell>
        <mxCell id="V17ofXIWmrN5ctmRVOS8-7" value="walletPay(钱包支付)" style="swimlane;fontStyle=1;align=center;verticalAlign=top;childLayout=stackLayout;horizontal=1;startSize=26;horizontalStack=0;resizeParent=1;resizeParentMax=0;resizeLast=0;collapsible=1;marginBottom=0;" vertex="1" parent="1">
          <mxGeometry x="50" y="290" width="280" height="60" as="geometry" />
        </mxCell>
        <mxCell id="V17ofXIWmrN5ctmRVOS8-9" value="" style="line;strokeWidth=1;fillColor=none;align=left;verticalAlign=middle;spacingTop=-1;spacingLeft=3;spacingRight=3;rotatable=0;labelPosition=right;points=[];portConstraint=eastwest;" vertex="1" parent="V17ofXIWmrN5ctmRVOS8-7">
          <mxGeometry y="26" width="280" height="8" as="geometry" />
        </mxCell>
        <mxCell id="V17ofXIWmrN5ctmRVOS8-10" value="handleConsum  实现对应的业务逻辑" style="text;strokeColor=none;fillColor=none;align=left;verticalAlign=top;spacingLeft=4;spacingRight=4;overflow=hidden;rotatable=0;points=[[0,0.5],[1,0.5]];portConstraint=eastwest;" vertex="1" parent="V17ofXIWmrN5ctmRVOS8-7">
          <mxGeometry y="34" width="280" height="26" as="geometry" />
        </mxCell>
        <mxCell id="V17ofXIWmrN5ctmRVOS8-17" style="edgeStyle=orthogonalEdgeStyle;rounded=0;orthogonalLoop=1;jettySize=auto;html=1;exitX=0.5;exitY=0;exitDx=0;exitDy=0;entryX=0.595;entryY=1.03;entryDx=0;entryDy=0;entryPerimeter=0;" edge="1" parent="1" source="V17ofXIWmrN5ctmRVOS8-18" target="V17ofXIWmrN5ctmRVOS8-4">
          <mxGeometry relative="1" as="geometry">
            <mxPoint x="620" y="280" as="sourcePoint" />
            <Array as="points">
              <mxPoint x="620" y="300" />
              <mxPoint x="620" y="230" />
              <mxPoint x="438" y="230" />
            </Array>
          </mxGeometry>
        </mxCell>
        <mxCell id="V17ofXIWmrN5ctmRVOS8-18" value="OilWalletPay（油券支付）" style="swimlane;fontStyle=1;align=center;verticalAlign=top;childLayout=stackLayout;horizontal=1;startSize=26;horizontalStack=0;resizeParent=1;resizeParentMax=0;resizeLast=0;collapsible=1;marginBottom=0;" vertex="1" parent="1">
          <mxGeometry x="470" y="290" width="280" height="60" as="geometry" />
        </mxCell>
        <mxCell id="V17ofXIWmrN5ctmRVOS8-19" value="" style="line;strokeWidth=1;fillColor=none;align=left;verticalAlign=middle;spacingTop=-1;spacingLeft=3;spacingRight=3;rotatable=0;labelPosition=right;points=[];portConstraint=eastwest;" vertex="1" parent="V17ofXIWmrN5ctmRVOS8-18">
          <mxGeometry y="26" width="280" height="8" as="geometry" />
        </mxCell>
        <mxCell id="V17ofXIWmrN5ctmRVOS8-20" value="handleConsum  实现对应的业务逻辑" style="text;strokeColor=none;fillColor=none;align=left;verticalAlign=top;spacingLeft=4;spacingRight=4;overflow=hidden;rotatable=0;points=[[0,0.5],[1,0.5]];portConstraint=eastwest;" vertex="1" parent="V17ofXIWmrN5ctmRVOS8-18">
          <mxGeometry y="34" width="280" height="26" as="geometry" />
        </mxCell>
        <mxCell id="V17ofXIWmrN5ctmRVOS8-23" value="&lt;h1 style=&quot;font-size: 15px&quot;&gt;&lt;font style=&quot;font-size: 15px&quot;&gt;&amp;nbsp; &amp;nbsp;//伪代码加锁逻辑&lt;/font&gt;&lt;/h1&gt;&lt;h1 style=&quot;font-size: 15px&quot;&gt;&lt;font style=&quot;font-size: 15px&quot;&gt;&amp;nbsp; &amp;nbsp;//更新用户钱包逻辑&lt;/font&gt;&lt;/h1&gt;&lt;h1 style=&quot;font-size: 15px&quot;&gt;&lt;font style=&quot;font-size: 15px&quot;&gt;&amp;nbsp; &amp;nbsp;//lock -userWallet&lt;/font&gt;&lt;/h1&gt;&lt;h1 style=&quot;font-size: 15px&quot;&gt;&lt;font style=&quot;font-size: 15px&quot;&gt;&amp;nbsp; &amp;nbsp; &amp;nbsp; //uppUserWallet&lt;/font&gt;&lt;/h1&gt;&lt;h1 style=&quot;font-size: 15px&quot;&gt;&lt;font style=&quot;font-size: 15px&quot;&gt;&amp;nbsp; &amp;nbsp; &amp;nbsp; //unlock -userWallet&lt;/font&gt;&lt;/h1&gt;&lt;h1 style=&quot;font-size: 15px&quot;&gt;&lt;font style=&quot;font-size: 15px&quot;&gt;//&amp;nbsp; &amp;nbsp;try {&lt;/font&gt;&lt;/h1&gt;&lt;h1 style=&quot;font-size: 15px&quot;&gt;&lt;font style=&quot;font-size: 15px&quot;&gt;&amp;nbsp; &amp;nbsp; &amp;nbsp; &amp;nbsp; //事务回滚 ：失败/异常&lt;/font&gt;&lt;/h1&gt;&lt;h1 style=&quot;font-size: 15px&quot;&gt;&lt;font style=&quot;font-size: 15px&quot;&gt;&amp;nbsp; &amp;nbsp; &amp;nbsp; &amp;nbsp; //saveTrade()&lt;/font&gt;&lt;/h1&gt;&lt;h1 style=&quot;font-size: 15px&quot;&gt;&lt;font style=&quot;font-size: 15px&quot;&gt;&amp;nbsp; &amp;nbsp; &amp;nbsp; &amp;nbsp; //callThirdAPI();&lt;/font&gt;&lt;/h1&gt;&lt;h1 style=&quot;font-size: 15px&quot;&gt;&lt;font style=&quot;font-size: 15px&quot;&gt;//&amp;nbsp; &amp;nbsp; &amp;nbsp; &amp;nbsp; } catch (Exception e) {&lt;/font&gt;&lt;/h1&gt;&lt;h1 style=&quot;font-size: 15px&quot;&gt;&lt;font style=&quot;font-size: 15px&quot;&gt;&amp;nbsp; &amp;nbsp; &amp;nbsp; &amp;nbsp;//回调更新用户钱包逻辑执行金额回退&lt;/font&gt;&lt;/h1&gt;&lt;h1 style=&quot;font-size: 15px&quot;&gt;&lt;font style=&quot;font-size: 15px&quot;&gt;&amp;nbsp; &amp;nbsp; &amp;nbsp; &amp;nbsp;// uppUserWallet&lt;/font&gt;&lt;/h1&gt;&lt;h1 style=&quot;font-size: 15px&quot;&gt;&lt;font style=&quot;font-size: 15px&quot;&gt;//&amp;nbsp; &amp;nbsp; &amp;nbsp;return Result.failed(e.getMessage());&lt;/font&gt;&lt;/h1&gt;&lt;h1 style=&quot;font-size: 15px&quot;&gt;&lt;font style=&quot;font-size: 15px&quot;&gt;//&amp;nbsp; &amp;nbsp; &amp;nbsp; &amp;nbsp; }&lt;/font&gt;&lt;/h1&gt;" style="text;html=1;strokeColor=none;fillColor=none;spacing=5;spacingTop=-20;whiteSpace=wrap;overflow=hidden;rounded=0;" vertex="1" parent="1">
          <mxGeometry x="110" y="380" width="480" height="360" as="geometry" />
        </mxCell>
      </root>
    </mxGraphModel>
  </diagram>
</mxfile>
